# xmcd CD database file
#
# Track frame offsets:
#	150
#	8920
#	22415
#	36533
#	49123
#	60132
#	75001
#	90963
#	103485
#	114277
#
# Disc length: 1700 seconds
#
# Revision: 1
# Processed by: cddbd v1.5.2PL0 Copyright (c) Steve Scherf et al.
# Submitted via: CDex 1.51
#
DISCID=7006a20a
DTITLE=Freddy Fender - Spanish Serenade
DYEAR=1900
DGENRE=Country
TTITLE0=Breaking Up Is Hard To Do
TTITLE1=Get Out Of My Life Woman (W-Tomm McLain)
TTITLE2=Roses Are Red (Spanish Version)
TTITLE3=Donna
TTITLE4=The Chokin' Kind
TTITLE5=La Bamba (Live)
TTITLE6=Whiskey River (Live)
TTITLE7=Almost Persuaded
TTITLE8=The Wild Side Of Life
TTITLE9=Just Because (Live)
EXTD=
EXTT0=
EXTT1=
EXTT2=
EXTT3=
EXTT4=
EXTT5=
EXTT6=
EXTT7=
EXTT8=
EXTT9=
PLAYORDER=
